<svg width="26" height="26" viewBox="0 0 26 26" fill="none" xmlns="http://www.w3.org/2000/svg">
<path d="M5.81425 8.125H0V26H5.81425V8.125Z" fill="#2CB093"/>
<path d="M21.6515 8.33463C21.5898 8.31513 21.5312 8.294 21.4663 8.27612C21.3883 8.25825 21.3102 8.24363 21.2306 8.23063C20.9219 8.16888 20.5839 8.125 20.1874 8.125C16.7976 8.125 14.6477 10.5901 13.9392 11.5424V8.125H8.125V26H13.9392V16.25C13.9392 16.25 18.3333 10.1302 20.1874 14.625C20.1874 18.6371 20.1874 26 20.1874 26H26V13.9376C26 11.2369 24.1491 8.98625 21.6515 8.33463Z" fill="#2CB093"/>
<path d="M2.84375 5.6875C4.41431 5.6875 5.6875 4.41431 5.6875 2.84375C5.6875 1.27319 4.41431 0 2.84375 0C1.27319 0 0 1.27319 0 2.84375C0 4.41431 1.27319 5.6875 2.84375 5.6875Z" fill="#2CB093"/>
</svg>
