<svg width="600" height="600" viewBox="0 0 600 600" fill="none" xmlns="http://www.w3.org/2000/svg">
<path d="M442.993 502.224C442.993 502.224 445.138 450.371 492.41 435.087C539.681 419.803 543.004 467.115 513.533 474.825C473.305 485.351 442.993 502.224 442.993 502.224Z" fill="#333333"/>
<path d="M442.993 502.224C442.993 502.224 462.606 465.327 511.078 447.969" stroke="#262424" stroke-width="1.56824" stroke-miterlimit="10" stroke-linecap="round" stroke-linejoin="round"/>
<path d="M434.652 502.224C434.652 502.224 403.482 476.92 415.857 440.535C428.233 404.149 459.113 423.962 450.271 445.806C438.2 475.623 434.652 502.224 434.652 502.224Z" fill="#27AE60"/>
<path d="M434.652 502.224C434.652 502.224 420.834 473.001 432.478 434.912" stroke="#262424" stroke-width="1.56824" stroke-miterlimit="10" stroke-linecap="round" stroke-linejoin="round"/>
<path d="M557.168 411.033H132.042C125.31 411.033 119.854 405.576 119.854 398.845V109.404C119.854 102.673 125.31 97.2158 132.042 97.2158H557.168C563.9 97.2158 569.356 102.673 569.356 109.404V398.845C569.356 405.576 563.9 411.033 557.168 411.033Z" fill="white" stroke="#262424" stroke-width="1.56824" stroke-miterlimit="10" stroke-linecap="round" stroke-linejoin="round"/>
<path d="M307.376 111.36V396.889" stroke="#262424" stroke-width="1.56824" stroke-miterlimit="10" stroke-linecap="round" stroke-linejoin="round"/>
<path d="M549.037 170.405H149.524" stroke="#262424" stroke-width="1.56824" stroke-miterlimit="10" stroke-linecap="round" stroke-linejoin="round"/>
<path d="M280.013 236.145H156.57C152.679 236.145 149.524 232.991 149.524 229.099V206.813C149.524 202.922 152.679 199.767 156.57 199.767H280.013C283.905 199.767 287.059 202.922 287.059 206.813V229.099C287.059 232.991 283.905 236.145 280.013 236.145Z" stroke="#262424" stroke-width="1.56824" stroke-miterlimit="10" stroke-linecap="round" stroke-linejoin="round"/>
<path d="M281.341 159.147H202.19C199.031 159.147 196.471 156.587 196.471 153.429V128.487C196.471 125.329 199.031 122.769 202.19 122.769H281.341C284.499 122.769 287.059 125.329 287.059 128.487V153.429C287.059 156.587 284.499 159.147 281.341 159.147Z" fill="#333333"/>
<path d="M414.884 159.147H335.733C332.575 159.147 330.015 156.587 330.015 153.429V128.487C330.015 125.329 332.575 122.769 335.733 122.769H414.884C418.042 122.769 420.603 125.329 420.603 128.487V153.429C420.603 156.587 418.042 159.147 414.884 159.147Z" fill="#333333"/>
<path d="M467.638 268.639H335.733C332.575 268.639 330.015 266.079 330.015 262.921V187.382C330.015 184.224 332.575 181.663 335.733 181.663H467.638C470.796 181.663 473.357 184.224 473.357 187.382V262.921C473.357 266.079 470.796 268.639 467.638 268.639Z" fill="white" stroke="#262424" stroke-width="1.56824" stroke-miterlimit="10" stroke-linecap="round" stroke-linejoin="round"/>
<path d="M467.638 390.05H335.733C332.575 390.05 330.015 387.49 330.015 384.331V286.239C330.015 283.081 332.575 280.521 335.733 280.521H467.638C470.796 280.521 473.357 283.081 473.357 286.239V384.331C473.357 387.49 470.796 390.05 467.638 390.05Z" fill="white" stroke="#262424" stroke-width="1.56824" stroke-miterlimit="10" stroke-linecap="round" stroke-linejoin="round"/>
<path d="M543.318 390.05H490.956C487.798 390.05 485.238 387.49 485.238 384.331V343.906C485.238 340.748 487.798 338.188 490.956 338.188H543.318C546.476 338.188 549.036 340.748 549.036 343.906V384.331C549.036 387.49 546.476 390.05 543.318 390.05Z" fill="#333333"/>
<path d="M544.911 135.218H501.126C498.847 135.218 497 133.371 497 131.092V126.895C497 124.616 498.847 122.769 501.126 122.769H544.911C547.189 122.769 549.037 124.616 549.037 126.895V131.092C549.037 133.371 547.189 135.218 544.911 135.218Z" fill="#27AE60"/>
<path d="M544.911 159.147H501.126C498.847 159.147 497 157.3 497 155.021V150.824C497 148.545 498.847 146.698 501.126 146.698H544.911C547.189 146.698 549.037 148.545 549.037 150.824V155.021C549.037 157.3 547.189 159.147 544.911 159.147Z" fill="#27AE60"/>
<path d="M176.798 159.147H152.847C151.012 159.147 149.524 157.659 149.524 155.824V126.092C149.524 124.257 151.012 122.769 152.847 122.769H176.798C178.634 122.769 180.122 124.257 180.122 126.092V155.824C180.122 157.659 178.634 159.147 176.798 159.147Z" fill="#333333"/>
<path d="M280.013 293.092H156.57C152.679 293.092 149.524 289.937 149.524 286.046V263.76C149.524 259.868 152.679 256.714 156.57 256.714H280.013C283.905 256.714 287.059 259.868 287.059 263.76V286.046C287.059 289.937 283.905 293.092 280.013 293.092Z" stroke="#262424" stroke-width="1.56824" stroke-miterlimit="10" stroke-linecap="round" stroke-linejoin="round"/>
<path d="M280.013 350.038H156.57C152.679 350.038 149.524 346.884 149.524 342.992V320.706C149.524 316.815 152.679 313.66 156.57 313.66H280.013C283.905 313.66 287.059 316.815 287.059 320.706V342.992C287.059 346.884 283.905 350.038 280.013 350.038Z" stroke="#262424" stroke-width="1.56824" stroke-miterlimit="10" stroke-linecap="round" stroke-linejoin="round"/>
<path d="M373.826 193.871C356.556 193.871 342.546 207.881 342.546 225.151C342.546 242.431 356.556 256.431 373.826 256.431C391.096 256.431 405.106 242.431 405.106 225.151C405.106 207.881 391.096 193.871 373.826 193.871ZM373.826 239.661C365.816 239.661 359.316 233.161 359.316 225.151C359.316 217.141 365.816 210.641 373.826 210.641C381.836 210.641 388.336 217.141 388.336 225.151C388.336 233.161 381.836 239.661 373.826 239.661Z" fill="#333333"/>
<path d="M405.106 225.151H388.336C388.336 217.141 381.836 210.641 373.826 210.641V193.871C391.096 193.871 405.106 207.881 405.106 225.151Z" fill="#27AE60"/>
<path d="M457.055 232.971H424.199C422.117 232.971 420.429 231.284 420.429 229.202V224.259C420.429 222.177 422.117 220.49 424.199 220.49H457.055C459.137 220.49 460.825 222.177 460.825 224.259V229.202C460.825 231.284 459.137 232.971 457.055 232.971Z" fill="#333333"/>
<path d="M441.135 209.511H424.199C422.117 209.511 420.429 207.824 420.429 205.742V200.799C420.429 198.717 422.117 197.03 424.199 197.03H441.135C443.217 197.03 444.904 198.717 444.904 200.799V205.742C444.904 207.824 443.217 209.511 441.135 209.511Z" fill="#27AE60"/>
<path d="M457.055 256.431H424.199C422.117 256.431 420.429 254.744 420.429 252.662V247.719C420.429 245.637 422.117 243.95 424.199 243.95H457.055C459.137 243.95 460.825 245.637 460.825 247.719V252.662C460.825 254.744 459.137 256.431 457.055 256.431Z" fill="#333333"/>
<path d="M543.318 322.525H490.956C487.798 322.525 485.238 319.964 485.238 316.806V187.382C485.238 184.224 487.798 181.663 490.956 181.663H543.318C546.476 181.663 549.036 184.224 549.036 187.382V316.806C549.036 319.964 546.476 322.525 543.318 322.525Z" fill="white" stroke="#262424" stroke-width="1.56824" stroke-miterlimit="10" stroke-linecap="round" stroke-linejoin="round"/>
<path d="M516.129 203.271H542.267" stroke="#262424" stroke-width="1.56824" stroke-miterlimit="10" stroke-linecap="round" stroke-linejoin="round"/>
<path d="M516.129 235.665H542.267" stroke="#262424" stroke-width="1.56824" stroke-miterlimit="10" stroke-linecap="round" stroke-linejoin="round"/>
<path d="M516.129 268.06H542.267" stroke="#262424" stroke-width="1.56824" stroke-miterlimit="10" stroke-linecap="round" stroke-linejoin="round"/>
<path d="M516.129 300.454H542.267" stroke="#262424" stroke-width="1.56824" stroke-miterlimit="10" stroke-linecap="round" stroke-linejoin="round"/>
<path d="M504.993 209.511H497.918C495.836 209.511 494.149 207.824 494.149 205.742V200.799C494.149 198.717 495.836 197.03 497.918 197.03H504.993C507.075 197.03 508.762 198.717 508.762 200.799V205.742C508.762 207.824 507.075 209.511 504.993 209.511Z" fill="#27AE60"/>
<path d="M504.993 241.906H497.918C495.836 241.906 494.149 240.218 494.149 238.136V233.194C494.149 231.112 495.836 229.424 497.918 229.424H504.993C507.075 229.424 508.762 231.112 508.762 233.194V238.136C508.762 240.218 507.075 241.906 504.993 241.906Z" fill="#333333"/>
<path d="M504.993 274.301H497.918C495.836 274.301 494.149 272.613 494.149 270.531V265.589C494.149 263.507 495.836 261.819 497.918 261.819H504.993C507.075 261.819 508.762 263.507 508.762 265.589V270.531C508.762 272.613 507.075 274.301 504.993 274.301Z" fill="#333333"/>
<path d="M504.993 306.695H497.918C495.836 306.695 494.149 305.007 494.149 302.925V297.983C494.149 295.901 495.836 294.213 497.918 294.213H504.993C507.075 294.213 508.762 295.901 508.762 297.983V302.925C508.762 305.007 507.075 306.695 504.993 306.695Z" fill="#333333"/>
<path d="M353.39 309.132H346.316C344.234 309.132 342.546 307.444 342.546 305.362V300.42C342.546 298.338 344.234 296.65 346.316 296.65H353.39C355.472 296.65 357.16 298.338 357.16 300.42V305.362C357.16 307.444 355.472 309.132 353.39 309.132Z" fill="#333333"/>
<path d="M353.39 341.526H346.316C344.234 341.526 342.546 339.838 342.546 337.756V332.814C342.546 330.732 344.234 329.044 346.316 329.044H353.39C355.472 329.044 357.16 330.732 357.16 332.814V337.756C357.16 339.838 355.472 341.526 353.39 341.526Z" fill="#333333"/>
<path d="M353.39 373.921H346.316C344.234 373.921 342.546 372.233 342.546 370.151V365.209C342.546 363.127 344.234 361.439 346.316 361.439H353.39C355.472 361.439 357.16 363.127 357.16 365.209V370.151C357.16 372.233 355.472 373.921 353.39 373.921Z" fill="#333333"/>
<path d="M364.525 288.485V381.634H458.861" stroke="#262424" stroke-width="1.56824" stroke-miterlimit="10" stroke-linecap="round" stroke-linejoin="round"/>
<path d="M388.336 300.42V370.151C388.336 372.233 386.648 373.921 384.566 373.921H379.624C377.542 373.921 375.854 372.233 375.854 370.151V300.42C375.854 298.338 377.542 296.65 379.624 296.65H384.566C386.648 296.65 388.336 298.338 388.336 300.42Z" fill="#27AE60"/>
<path d="M411.346 317.205V370.151C411.346 372.233 409.659 373.921 407.577 373.921H402.635C400.553 373.921 398.865 372.233 398.865 370.151V317.205C398.865 315.123 400.553 313.436 402.635 313.436H407.577C409.659 313.436 411.346 315.123 411.346 317.205Z" fill="#27AE60"/>
<path d="M434.357 331.321V370.151C434.357 372.233 432.67 373.921 430.588 373.921H425.646C423.564 373.921 421.876 372.233 421.876 370.151V331.321C421.876 329.239 423.564 327.551 425.646 327.551H430.588C432.67 327.551 434.357 329.239 434.357 331.321Z" fill="#27AE60"/>
<path d="M455.092 309.132H425.646C423.564 309.132 421.876 307.444 421.876 305.362V300.42C421.876 298.338 423.564 296.65 425.646 296.65H455.092C457.174 296.65 458.861 298.338 458.861 300.42V305.362C458.861 307.444 457.174 309.132 455.092 309.132Z" fill="#333333"/>
<path d="M268.444 224.576H145.001C141.109 224.576 137.955 221.422 137.955 217.53V195.244C137.955 191.353 141.109 188.198 145.001 188.198H268.444C272.335 188.198 275.49 191.353 275.49 195.244V217.53C275.49 221.422 272.335 224.576 268.444 224.576Z" fill="#27AE60"/>
<path d="M55.709 395.265L69.9177 411.436L84.5947 394.303L63.9467 384.52L55.709 395.265Z" fill="white" stroke="#262424" stroke-width="1.56824" stroke-miterlimit="10" stroke-linecap="round" stroke-linejoin="round"/>
<path d="M69.3937 394.307L64.557 399.922C63.1619 401.542 63.1186 403.926 64.4541 405.595L69.0953 411.396C69.8889 412.388 71.0693 412.993 72.3381 413.057H72.3381C73.676 413.125 74.9731 412.585 75.8679 411.588L82.1494 404.59C83.358 403.244 83.6289 401.299 82.8343 399.673L82.125 398.223C81.7242 397.403 81.0804 396.726 80.2813 396.285L74.9046 393.317C73.0648 392.302 70.7651 392.715 69.3937 394.307Z" fill="white" stroke="#262424" stroke-width="1.56824" stroke-miterlimit="10" stroke-linecap="round" stroke-linejoin="round"/>
<path d="M73.3134 390.302H73.3135C74.1376 389.184 75.6015 388.746 76.904 389.227L82.4672 391.282C84.1857 391.917 85.5362 393.279 86.1572 395.002L86.7966 396.777C87.1906 397.87 86.9438 399.092 86.1563 399.947L85.8953 400.23C85.3234 400.851 84.5244 401.214 83.6807 401.235L82.7234 401.259C80.9026 401.305 79.1534 400.55 77.9388 399.193L73.4995 394.232C72.5143 393.131 72.4366 391.49 73.3134 390.302Z" fill="white" stroke="#262424" stroke-width="1.56824" stroke-miterlimit="10" stroke-linecap="round" stroke-linejoin="round"/>
<path d="M63.9467 384.52L77.795 387.244C79.0836 387.497 80.1366 388.423 80.5522 389.669C80.971 390.924 80.6778 392.307 79.7861 393.284L73.5406 400.127C72.6533 401.099 71.1662 401.222 70.1312 400.409C69.2202 399.693 68.9164 398.448 69.3956 397.393L70.9599 393.95L65.7833 394.444C64.846 394.533 63.9373 394.091 63.4289 393.298L60.5187 388.76L63.9467 384.52Z" fill="white" stroke="#262424" stroke-width="1.56824" stroke-miterlimit="10" stroke-linecap="round" stroke-linejoin="round"/>
<path d="M103.524 284.094C113.418 302.926 65.9705 345.767 65.9705 345.767C65.9705 345.767 69.3182 369.49 71.9452 385.067L54.7294 397.363C54.7294 397.363 38.2891 368.987 34.7104 349.463C33.8358 344.68 33.0434 339.963 32.4329 335.626C32.4329 335.626 35.0083 330.74 39.5334 323.675C47.0714 311.901 65.3161 287.325 80.7858 275.98C80.7858 275.98 93.6329 265.265 103.524 284.094Z" fill="#27AE60"/>
<path d="M57.3659 393.727C58.301 393.727 59.059 392.968 59.059 392.033C59.059 391.098 58.301 390.34 57.3659 390.34C56.4308 390.34 55.6727 391.098 55.6727 392.033C55.6727 392.968 56.4308 393.727 57.3659 393.727Z" fill="white" stroke="#262424" stroke-width="1.56824" stroke-miterlimit="10" stroke-linecap="round" stroke-linejoin="round"/>
<path d="M43.834 339.06C42.3148 344.363 38.6838 348.279 34.7104 349.463C33.8358 344.68 33.0434 339.963 32.4329 335.626C32.4329 335.626 35.0083 330.74 39.5334 323.675C43.7784 326.187 45.6906 332.579 43.834 339.06Z" fill="white"/>
<path d="M46.2875 341.795L64.0561 345.619" stroke="#262424" stroke-width="1.56824" stroke-miterlimit="10" stroke-linecap="round" stroke-linejoin="round"/>
<path d="M54.1853 388.407L65.9661 385.257" stroke="#262424" stroke-width="1.56824" stroke-miterlimit="10" stroke-linecap="round" stroke-linejoin="round"/>
<path d="M85.5318 467.931L61.4255 470.194L65.6775 459.794L85.8598 456.553L85.5318 467.931Z" fill="white" stroke="#262424" stroke-width="1.56824" stroke-miterlimit="10" stroke-linecap="round" stroke-linejoin="round"/>
<path d="M48.5077 497.192C49.4326 495.87 50.9859 492.797 52.0152 491.578C59.9786 482.15 67.4109 475.797 70.8268 472.995L67.3494 455.281C55.3815 456.261 44.2499 457.932 37.8226 459.006C34.2409 459.602 32.1188 460.015 32.1188 460.015L37.5683 502.225L41.6689 501.695C44.3339 501.351 46.7313 499.732 48.5077 497.192Z" fill="#333333"/>
<path d="M55.6246 474.784C59.0978 474.336 61.6671 472.065 61.3635 469.713C61.0598 467.361 57.9981 465.818 54.525 466.266C51.0518 466.715 48.4825 468.985 48.7862 471.337C49.0898 473.689 52.1515 475.232 55.6246 474.784Z" fill="white"/>
<path d="M41.6676 501.696L37.5677 502.225L32.1183 460.016C32.1183 460.016 34.2408 459.603 37.8225 459.005L42.4968 495.21C42.4968 495.21 47.1655 494.8 50.9349 493.156C50.0772 494.547 49.1439 496.284 48.5084 497.191C46.7303 499.733 44.3334 501.351 41.6676 501.696Z" fill="white"/>
<path d="M41.6676 501.696L37.5677 502.225L32.1183 460.016C32.1183 460.016 34.2408 459.603 37.8225 459.005L42.4968 495.21C42.4968 495.21 47.1655 494.8 50.9349 493.156C50.0772 494.547 49.1439 496.284 48.5084 497.191C46.7303 499.733 44.3334 501.351 41.6676 501.696Z" stroke="#262424" stroke-width="1.56824" stroke-miterlimit="10" stroke-linecap="round" stroke-linejoin="round"/>
<path d="M164.678 471.869L157.499 471.798L83.2794 471.025L80.8337 452.082L133.167 440.385C165.048 431.55 177.37 443.813 179.324 454.188C179.845 456.974 179.624 459.635 178.822 461.704C175.069 471.445 164.678 471.869 164.678 471.869Z" fill="#333333"/>
<path d="M164.678 471.869L157.499 471.798C157.426 471.464 157.371 471.118 157.326 470.771C156.205 462.083 162.337 454.133 171.015 453.012C173.941 452.635 176.792 453.083 179.324 454.188C179.845 456.974 179.624 459.635 178.822 461.704C175.069 471.445 164.678 471.869 164.678 471.869Z" fill="white"/>
<path d="M159.904 454.245L90.6248 461.606" stroke="#262424" stroke-width="1.56824" stroke-miterlimit="10" stroke-linecap="round" stroke-linejoin="round"/>
<path d="M149.989 437.434L159.904 454.245" stroke="#262424" stroke-width="1.56824" stroke-miterlimit="10" stroke-linecap="round" stroke-linejoin="round"/>
<path d="M87.3468 453.846L89.2789 468.811" stroke="#262424" stroke-width="1.56824" stroke-miterlimit="10" stroke-linecap="round" stroke-linejoin="round"/>
<path d="M179.61 454.106C179.61 454.606 179.59 455.116 179.53 455.626C179.53 455.636 179.53 455.646 179.53 455.646C179.49 456.166 179.41 456.676 179.31 457.196C177.29 465.486 170.06 471.406 161.62 471.836C161.29 471.856 160.96 471.866 160.63 471.866H159.93C159.44 471.866 158.95 471.846 158.47 471.806C158.14 471.786 157.81 471.756 157.48 471.706C154.05 471.266 150.79 469.906 148.05 467.756L91.0696 422.966C84.4596 417.516 80.9396 409.186 81.6296 400.646L83.3997 357.796L135.49 356.156L133.37 398.776L174.51 442.286C177.8 445.386 179.61 449.676 179.61 454.106Z" fill="#333333"/>
<path d="M106.826 403.494L97.8436 406.646L88.8617 403.494V385.401H106.826V403.494Z" stroke="#262424" stroke-width="1.56824" stroke-miterlimit="10" stroke-linecap="round" stroke-linejoin="round"/>
<path d="M179.53 455.626C179.53 455.636 179.53 455.646 179.53 455.646C179.49 456.166 179.41 456.676 179.31 457.196C177.29 465.486 170.06 471.406 161.62 471.836L158.47 471.806L157.5 471.796C157.49 471.766 157.49 471.736 157.48 471.706C157.42 471.406 157.37 471.086 157.33 470.776C156.21 462.086 162.34 454.136 171.02 453.016C173.94 452.636 176.79 453.086 179.32 454.186C179.41 454.676 179.48 455.156 179.53 455.626Z" fill="white"/>
<path d="M179.324 454.188C179.845 456.974 179.624 459.635 178.822 461.704C175.069 471.445 164.678 471.869 164.678 471.869L157.499 471.798" stroke="#262424" stroke-width="1.56824" stroke-miterlimit="10" stroke-linecap="round" stroke-linejoin="round"/>
<path d="M126.69 420.38L159.263 453.9L134.319 456.963" stroke="#262424" stroke-width="1.56824" stroke-miterlimit="10" stroke-linecap="round" stroke-linejoin="round"/>
<path d="M131.515 423.805L131.515 423.805C139.019 427.927 148.065 428.12 155.738 424.322L215.347 392.917C222.217 389.298 227.297 383.016 229.4 375.541L229.4 375.541C231.271 368.889 228.738 361.779 223.082 357.808L223.082 357.808C218.528 354.611 212.656 353.96 207.512 356.084L164.86 371.487L163.004 352.952L117.472 365.071L117.939 401.276C118.091 410.678 123.273 419.278 131.515 423.805Z" fill="#333333"/>
<path d="M141.584 403.494L132.602 406.646L123.62 403.494V385.401H141.584V403.494Z" stroke="#262424" stroke-width="1.56824" stroke-miterlimit="10" stroke-linecap="round" stroke-linejoin="round"/>
<path d="M117.472 365.071L117.939 401.276C118.091 410.678 123.273 419.278 131.515 423.805L131.515 423.805C135.207 425.833 139.272 426.91 143.364 427.029C143.364 427.029 147.068 427.118 149.524 426.474C151.981 425.83 154.947 424.696 154.947 424.696" stroke="#262424" stroke-width="1.56824" stroke-miterlimit="10" stroke-linecap="round" stroke-linejoin="round"/>
<path d="M146.741 368.484L147.467 395.4L211.87 374.752" stroke="#262424" stroke-width="1.56824" stroke-miterlimit="10" stroke-linecap="round" stroke-linejoin="round"/>
<path d="M147.467 395.4L151.522 390.057C154.112 386.644 155.523 382.482 155.541 378.197L155.581 368.484" stroke="#262424" stroke-width="1.56824" stroke-miterlimit="10" stroke-linecap="round" stroke-linejoin="round"/>
<path d="M215.921 450.264L215.078 474.462L205.309 468.913L204.678 448.482L215.921 450.264Z" fill="white" stroke="#262424" stroke-width="1.56824" stroke-miterlimit="10" stroke-linecap="round" stroke-linejoin="round"/>
<path d="M240.201 490.73C239.007 489.644 236.159 487.71 235.082 486.533C226.751 477.428 221.402 469.243 219.06 465.497L201.047 466.677C200.486 478.672 200.719 489.926 200.961 496.438C201.093 500.067 201.231 502.224 201.231 502.224H243.791V498.09C243.791 495.402 242.492 492.817 240.201 490.73Z" fill="#333333"/>
<path d="M214.594 487.144C216.965 487.144 218.888 484.305 218.888 480.803C218.888 477.301 216.965 474.462 214.594 474.462C212.222 474.462 210.3 477.301 210.3 480.803C210.3 484.305 212.222 487.144 214.594 487.144Z" fill="white"/>
<path d="M243.791 498.091V502.225H201.232C201.232 502.225 201.094 500.067 200.959 496.438H237.465C237.465 496.438 237.656 491.755 236.508 487.807C237.778 488.835 239.381 489.983 240.2 490.73C242.492 492.819 243.791 495.403 243.791 498.091Z" fill="white"/>
<path d="M243.791 498.091V502.225H201.232C201.232 502.225 201.094 500.067 200.959 496.438H237.465C237.465 496.438 237.656 491.755 236.508 487.807C237.778 488.835 239.381 489.983 240.2 490.73C242.492 492.819 243.791 495.403 243.791 498.091Z" stroke="#262424" stroke-width="1.56824" stroke-miterlimit="10" stroke-linecap="round" stroke-linejoin="round"/>
<path d="M229.961 372.274L228.971 379.384L218.701 452.894H199.601L194.701 399.495C190.021 366.745 203.761 356.094 214.301 355.485C217.131 355.324 219.741 355.884 221.691 356.945C230.871 361.914 229.961 372.274 229.961 372.274Z" fill="#333333"/>
<path d="M229.961 372.274L228.971 379.384C228.631 379.414 228.281 379.425 227.931 379.425C219.171 379.425 212.071 372.324 212.071 363.574C212.071 360.625 212.881 357.855 214.301 355.485C217.131 355.324 219.741 355.884 221.691 356.945C230.871 361.914 229.961 372.274 229.961 372.274Z" fill="white"/>
<path d="M214.301 355.485C217.13 355.324 219.741 355.884 221.69 356.945C230.871 361.914 229.961 372.274 229.961 372.274L228.971 379.384" stroke="#262424" stroke-width="1.56824" stroke-miterlimit="10" stroke-linecap="round" stroke-linejoin="round"/>
<path d="M211.87 374.752L210.3 444.404" stroke="#262424" stroke-width="1.56824" stroke-miterlimit="10" stroke-linecap="round" stroke-linejoin="round"/>
<path d="M194.113 380.445L211.87 374.752" stroke="#262424" stroke-width="1.56824" stroke-miterlimit="10" stroke-linecap="round" stroke-linejoin="round"/>
<path d="M202.185 446.661H217.274" stroke="#262424" stroke-width="1.56824" stroke-miterlimit="10" stroke-linecap="round" stroke-linejoin="round"/>
<path d="M107.054 268.504L106.569 255.815L115.252 256.451L116.981 266.563L107.054 268.504Z" fill="white" stroke="#262424" stroke-width="1.56824" stroke-miterlimit="10" stroke-linecap="round" stroke-linejoin="round"/>
<path d="M110.309 253.699C110.309 253.699 115.568 258.796 121.621 257.612C127.675 256.428 127.323 230.663 116.138 230.667C104.953 230.671 100.477 244.277 110.309 253.699Z" fill="white" stroke="#262424" stroke-width="1.56824" stroke-miterlimit="10" stroke-linecap="round" stroke-linejoin="round"/>
<path d="M121.831 244.521C121.831 244.521 119.729 239.765 116.481 241.679C113.233 243.592 114.532 249.144 117.357 250.243L115.252 256.451L106.658 258.133C106.658 258.133 97.9095 250.212 95.9446 244.524C93.9798 238.836 99.5328 237.271 99.5328 237.271C99.5328 237.271 99.5754 232.042 103.509 230.367C107.443 228.692 119.191 228.845 119.191 228.845C119.191 228.845 120.702 224.927 122.556 224.604C124.41 224.281 125.125 228.137 125.125 228.137C125.125 228.137 126.931 224.507 128.62 225.176C130.309 225.844 130.306 239.308 122.259 238.405C122.259 238.405 124.324 243.514 121.831 244.521Z" fill="#262424"/>
<path d="M99.7716 270.488C99.7716 270.488 100.953 263.865 110.187 262.059C119.422 260.252 124.174 267.393 124.174 267.393L100.088 272.104L99.7716 270.488Z" fill="white" stroke="#262424" stroke-width="1.56824" stroke-miterlimit="10" stroke-linecap="round" stroke-linejoin="round"/>
<path d="M166.763 366.391C163.163 368.491 159.415 370.308 155.581 371.866L153.182 359.6C153.031 358.827 152.58 358.187 151.975 357.778C151.369 357.372 150.605 357.196 149.833 357.347C148.285 357.65 147.274 359.148 147.577 360.696L150.158 373.892C115.463 385.757 76.229 378.986 76.229 378.986C72.7158 313.626 84.0277 274.552 84.0277 274.552C100.559 267.077 147.644 262.108 147.644 262.108C156.45 302.783 166.763 366.391 166.763 366.391Z" fill="#27AE60"/>
<path d="M83.3974 276.963C82.2321 281.681 79.6887 293.209 77.8123 310.547L76.34 327.996" stroke="#262424" stroke-width="1.56824" stroke-miterlimit="10" stroke-linecap="round" stroke-linejoin="round"/>
<path d="M108.268 274.712C108.268 274.712 100.666 316.041 109.175 369.347" stroke="#262424" stroke-width="1.56824" stroke-miterlimit="10" stroke-linecap="round" stroke-linejoin="round"/>
<path d="M156.296 365.447C158.499 364.681 160.736 363.857 163.004 362.972" stroke="#262424" stroke-width="1.56824" stroke-miterlimit="10" stroke-linecap="round" stroke-linejoin="round"/>
<path d="M80.1381 372.701C80.1381 372.701 106.804 379.986 146.741 368.484" stroke="#262424" stroke-width="1.56824" stroke-miterlimit="10" stroke-linecap="round" stroke-linejoin="round"/>
<path d="M218.621 237.885L213.574 229.69C212.013 227.394 211.078 224.731 210.863 221.963L210.405 216.065C210.34 215.226 211.013 214.515 211.853 214.534C212.398 214.546 212.887 214.868 213.114 215.363L216.152 222.001L216.47 213.646L218.001 203.91C218.15 202.961 219.014 202.295 219.969 202.39C220.872 202.481 221.568 203.225 221.598 204.132L221.927 214.2C221.943 214.702 222.325 215.115 222.824 215.171C223.36 215.231 223.848 214.859 223.933 214.327L225.297 205.803C225.523 204.391 227.131 203.684 228.324 204.472L233.917 208.164C235.125 208.961 235.836 210.324 235.798 211.77L235.455 221.382C235.395 223.038 235.07 224.674 234.491 226.227L228.403 242.812L218.621 237.885Z" fill="white" stroke="#262424" stroke-width="1.56824" stroke-miterlimit="10" stroke-linecap="round" stroke-linejoin="round"/>
<path d="M135.324 278.797C136.12 272.512 139.707 264.866 147.202 262.168C159.507 261.468 189.414 260.669 189.414 260.669C189.414 260.669 206.054 244.891 215.991 234.555L230.57 240.667C230.57 240.667 223.09 257.689 215.374 274.583C213.482 278.721 211.562 282.764 209.707 286.418C209.707 286.418 205.114 288.786 197.857 291.781C185.766 296.775 166.274 303.511 148.329 303.925C148.329 303.925 132.823 298.541 135.324 278.797Z" fill="#27AE60"/>
<path d="M148.329 303.925C148.329 303.925 132.823 298.541 135.324 278.797C135.983 273.591 138.557 267.452 143.68 263.964" stroke="#262424" stroke-width="1.56824" stroke-miterlimit="10" stroke-linecap="round" stroke-linejoin="round"/>
<path d="M225.692 244.927C226.567 244.927 227.277 244.218 227.277 243.343C227.277 242.468 226.567 241.758 225.692 241.758C224.817 241.758 224.108 242.468 224.108 243.343C224.108 244.218 224.817 244.927 225.692 244.927Z" fill="white" stroke="#262424" stroke-width="1.56824" stroke-miterlimit="10" stroke-linecap="round" stroke-linejoin="round"/>
<path d="M202.801 277.675C206.808 274.421 211.692 273.362 215.374 274.583C213.482 278.721 211.563 282.764 209.707 286.418C209.707 286.418 205.114 288.786 197.857 291.781C195.947 287.58 197.905 281.652 202.801 277.675Z" fill="white"/>
<path d="M202.384 274.263L190.803 261.809" stroke="#262424" stroke-width="1.56824" stroke-miterlimit="10" stroke-linecap="round" stroke-linejoin="round"/>
<path d="M226.189 247.829L212.974 241.743" stroke="#262424" stroke-width="1.56824" stroke-miterlimit="10" stroke-linecap="round" stroke-linejoin="round"/>
<path d="M351.593 482.999C348.018 482.999 344.787 484.45 342.45 486.788C340.104 489.125 338.661 492.364 338.661 495.931C338.661 492.364 337.217 489.125 334.872 486.788C332.535 484.45 329.304 482.999 325.729 482.999C329.304 482.999 332.535 481.548 334.872 479.21C337.217 476.873 338.661 473.634 338.661 470.067C338.661 473.634 340.104 476.873 342.45 479.21C344.787 481.548 348.018 482.999 351.593 482.999Z" fill="#27AE60"/>
<path d="M53.6029 432.126C52.2319 432.126 50.9928 432.683 50.0965 433.579C49.1972 434.476 48.6435 435.718 48.6435 437.086C48.6435 435.718 48.0899 434.476 47.1906 433.579C46.2942 432.683 45.0551 432.126 43.6842 432.126C45.0551 432.126 46.2942 431.57 47.1906 430.674C48.0899 429.777 48.6435 428.535 48.6435 427.167C48.6435 428.535 49.1972 429.777 50.0965 430.674C50.9928 431.57 52.2319 432.126 53.6029 432.126Z" fill="#27AE60"/>
<path d="M94.5052 161.533C91.7096 161.533 89.1827 162.668 87.3547 164.496C85.5208 166.324 84.3918 168.856 84.3918 171.646C84.3918 168.856 83.2628 166.324 81.4288 164.496C79.6009 162.668 77.074 161.533 74.2783 161.533C77.074 161.533 79.6009 160.398 81.4288 158.57C83.2628 156.742 84.3918 154.209 84.3918 151.419C84.3918 154.209 85.5208 156.742 87.3547 158.57C89.1827 160.398 91.7096 161.533 94.5052 161.533Z" fill="#333333"/>
<path d="M297.77 440.214C295.983 440.214 294.367 440.94 293.198 442.109C292.026 443.277 291.304 444.897 291.304 446.68C291.304 444.897 290.582 443.277 289.41 442.109C288.241 440.94 286.625 440.214 284.838 440.214C286.625 440.214 288.241 439.489 289.41 438.32C290.582 437.151 291.304 435.532 291.304 433.748C291.304 435.532 292.026 437.151 293.198 438.32C294.367 439.489 295.983 440.214 297.77 440.214Z" fill="#333333"/>
<path d="M51.3195 259.567C49.9285 259.567 48.6712 260.131 47.7617 261.041C46.8493 261.95 46.2875 263.21 46.2875 264.598C46.2875 263.21 45.7258 261.95 44.8133 261.041C43.9038 260.131 42.6466 259.567 41.2556 259.567C42.6466 259.567 43.9038 259.002 44.8133 258.092C45.7258 257.183 46.2875 255.923 46.2875 254.535C46.2875 255.923 46.8493 257.183 47.7617 258.092C48.6712 259.002 49.9285 259.567 51.3195 259.567Z" fill="#27AE60"/>
<path d="M379.888 440.214C381.107 440.214 382.095 439.226 382.095 438.007C382.095 436.788 381.107 435.8 379.888 435.8C378.669 435.8 377.68 436.788 377.68 438.007C377.68 439.226 378.669 440.214 379.888 440.214Z" fill="#333333"/>
<path d="M555.409 478.263C557.157 478.263 558.575 476.845 558.575 475.097C558.575 473.348 557.157 471.931 555.409 471.931C553.66 471.931 552.243 473.348 552.243 475.097C552.243 476.845 553.66 478.263 555.409 478.263Z" fill="#27AE60"/>
</svg>
